<svg viewBox="0 0 507.5 686.5" xmlns="http://www.w3.org/2000/svg" xmlns:xlink="http://www.w3.org/1999/xlink" width="507.500000" height="686.500488" fill="none" customFrame="#000000">
	<g id="Сочетание 1">
		<path id="Прямоугольник 13" d="M79 420L435 420L435 552.001L294.5 686.501L215.5 686.5L79 552L79 420Z" fill="rgb(107,102,91)" fill-rule="evenodd" />
		<path id="Прямоугольник 14" d="M461.5 208L482.5 208.001L482.5 225.5L494.5 231.501L494.5 246L507.5 256.001L507.5 360.5L497.5 364.501L494.5 379.5L482.5 389.001L482.5 406.001L432 406.001L421 297.001L461.5 208Z" fill="rgb(58,58,54)" fill-rule="evenodd" />
		<path id="Прямоугольник 15" d="M40.5 0L61.5 3.43323e-05L61.5 17.5L73.5 23.5L73.5 37.9999L86.5 48L86.5 152.5L76.5 156.5L73.5 171.5L61.5 181L61.5 198L11 198L0 89L40.5 0Z" fill="rgb(58,58,54)" fill-rule="evenodd" transform="matrix(-1,0,0,1,86.5,208)" />
		<path id="Прямоугольник 11" d="M255 0L421 59.0005L471 197.501L442 413.501L364 478.5L356.5 563L305.75 578.5L255 594L255 100L255 0Z" fill="rgb(139,115,85)" fill-rule="evenodd" />
		<path id="Прямоугольник 12" d="M0 0L166 59.0005L216 197.501L187 413.501L109 478.5L101.5 563L50.75 578.5L3.8147e-06 594L0 100L0 0Z" fill="rgb(245,240,230)" fill-rule="evenodd" transform="matrix(-1,0,0,1,255,0.000488281)" />
		<path id="Прямоугольник 16" d="M318 275L414 234.5L409 282.5L336.5 335.5L289 332L318 275Z" fill="rgb(58,58,54)" fill-rule="evenodd" />
		<path id="Прямоугольник 17" d="M29 40.5L125 0L120 48L47.5 101L0 97.5L29 40.5Z" fill="rgb(58,58,54)" fill-rule="evenodd" transform="matrix(-1,0,0,1,221,235)" />
	</g>
</svg>
